<svg width="18" height="19" viewBox="0 0 18 19" fill="none" xmlns="http://www.w3.org/2000/svg">
<path d="M15 1.40482H3C2.57555 1.40482 2.16854 1.574 1.86851 1.87504C1.56849 2.17606 1.4 2.58427 1.4 3.00984V15.05C1.4 15.4755 1.56849 15.8837 1.86851 16.1848C2.16854 16.4858 2.57555 16.655 3 16.655H15C15.4245 16.655 15.8315 16.4858 16.1315 16.1848C16.4315 15.8837 16.6 15.4755 16.6 15.05V3.00984C16.6 2.58427 16.4315 2.17606 16.1315 1.87504C15.8315 1.574 15.4245 1.40482 15 1.40482ZM3 15.3262C2.92717 15.3262 2.85726 15.2972 2.80566 15.2454C2.75405 15.1937 2.725 15.1234 2.725 15.05V8.3774H9.375C9.44783 8.3774 9.51774 8.40642 9.56934 8.45819C9.62095 8.50997 9.65 8.58028 9.65 8.65365V15.3262H3ZM15.275 15.05C15.275 15.1234 15.2459 15.1937 15.1943 15.2454C15.1427 15.2972 15.0728 15.3262 15 15.3262H10.975V8.65365C10.975 8.22808 10.8065 7.81988 10.5065 7.51885C10.2065 7.21782 9.79945 7.04864 9.375 7.04864H2.725V3.00984C2.725 2.93646 2.75405 2.86616 2.80566 2.81438C2.85726 2.76261 2.92717 2.73358 3 2.73358H15C15.0728 2.73358 15.1427 2.76261 15.1943 2.81438C15.2459 2.86616 15.275 2.93646 15.275 3.00984V15.05Z" fill="#757575" stroke="#757575" stroke-width="0.2"/>
</svg>
