<svg width="24" height="18" viewBox="0 0 24 18" fill="none" xmlns="http://www.w3.org/2000/svg">
<path d="M21.1866 8.95307H20.7999V4.47289C20.7977 2.55579 19.2493 1.0022 17.3386 1H6.80433C4.89361 1.0022 3.34521 2.55579 3.34301 4.47289V8.95307H2.95638C1.87651 8.95433 1.0011 9.83251 1 10.916V13.5718C1.0011 14.6553 1.87651 15.5333 2.95638 15.5347H3.78032V16.0923C3.78095 16.6229 4.20963 17.0529 4.73858 17.0535H6.25247C6.78126 17.0529 7.21011 16.6229 7.21073 16.0923V15.5347H16.9324V16.0923C16.933 16.6229 17.3615 17.0529 17.8905 17.0535H19.4048C19.9338 17.0529 20.3625 16.6229 20.3629 16.0923V15.5347H21.187C22.2669 15.5333 23.1423 14.6553 23.1434 13.5718V10.916C23.1423 9.83235 22.2668 8.95417 21.1866 8.95307ZM4.24588 4.47289C4.24745 3.05596 5.39212 1.90778 6.80433 1.90589H17.3386C18.7508 1.90778 19.8953 3.05596 19.8969 4.47289V8.95307H19.0679V7.38358C19.0672 6.74974 18.5553 6.23618 17.9236 6.2354H13.593C12.9614 6.23618 12.4494 6.7499 12.4488 7.38358V8.95307H11.6942V7.38358C11.6934 6.7499 11.1815 6.23618 10.5498 6.2354H6.21952C5.58779 6.23618 5.07579 6.74974 5.075 7.38358V8.95307H4.24588V4.47289ZM18.1649 8.95307H13.3518V7.38358C13.3518 7.24992 13.4598 7.1416 13.593 7.14145H17.9236C18.0568 7.1416 18.1648 7.24992 18.1649 7.38358V8.95307ZM10.7913 8.95307H5.97788V7.38358C5.97819 7.24992 6.08614 7.1416 6.21952 7.14145H10.5498C10.6832 7.1416 10.7912 7.24992 10.7913 7.38358V8.95307ZM2.95638 9.85912H21.1866C21.7681 9.8599 22.2393 10.3327 22.2399 10.916V12.9024H1.90287V10.916C1.9035 10.3327 2.37486 9.8599 2.95638 9.85912ZM6.3077 16.092C6.3077 16.1226 6.28323 16.1473 6.25279 16.1473H4.73843C4.70799 16.1473 4.68351 16.1226 4.68351 16.092V15.5347H6.3077V16.092ZM19.4596 16.092C19.4596 16.1226 19.435 16.1473 19.4045 16.1473H17.8905C17.86 16.1473 17.8356 16.1226 17.8356 16.092V15.5347H19.4598L19.4596 16.092ZM21.1866 14.6288H2.95638C2.46587 14.6277 2.04064 14.2878 1.93064 13.8083H22.2123C22.1021 14.2878 21.6772 14.6277 21.1866 14.6288Z" fill="#757575" stroke="#757575" stroke-width="0.2"/>
</svg>
