<svg width="22" height="18" viewBox="0 0 22 18" fill="none" xmlns="http://www.w3.org/2000/svg">
<path d="M21.16 16.4114H20.2384V12.8796C20.2384 12.7944 20.2047 12.7128 20.1447 12.6526C20.0847 12.5923 20.0033 12.5585 19.9184 12.5585H17.7552V5.17391C17.7552 5.08876 17.7215 5.00709 17.6615 4.94688C17.6015 4.88667 17.5201 4.85284 17.4352 4.85284H15.2752V1.32107C15.2752 1.23592 15.2415 1.15425 15.1815 1.09404C15.1215 1.03383 15.0401 1 14.9552 1H7.5152C7.43033 1 7.34894 1.03383 7.28893 1.09404C7.22891 1.15425 7.1952 1.23592 7.1952 1.32107V4.85284H5.0352C4.95033 4.85284 4.86894 4.88667 4.80893 4.94688C4.74891 5.00709 4.7152 5.08876 4.7152 5.17391V12.5585H2.552C2.46713 12.5585 2.38574 12.5923 2.32573 12.6526C2.26571 12.7128 2.232 12.7944 2.232 12.8796V16.4114H1.32C1.23513 16.4114 1.15374 16.4452 1.09373 16.5054C1.03371 16.5656 1 16.6473 1 16.7324C1 16.8176 1.03371 16.8992 1.09373 16.9595C1.15374 17.0197 1.23513 17.0535 1.32 17.0535H21.16C21.2449 17.0535 21.3263 17.0197 21.3863 16.9595C21.4463 16.8992 21.48 16.8176 21.48 16.7324C21.48 16.6473 21.4463 16.5656 21.3863 16.5054C21.3263 16.4452 21.2449 16.4114 21.16 16.4114ZM17.1344 5.49498V12.5585H16.8144V5.81605H15.5856V12.5585H15.2656V5.49498H17.1344ZM16.5136 8.38461V9.98996H15.896V8.38461H16.5136ZM15.896 7.74247V6.13712H16.5136V7.74247H15.896ZM16.5136 10.6321V12.2374H15.896V10.6321H16.5136ZM2.8624 13.2007H4.7248V16.4114H2.8624V13.2007ZM5.3456 5.49498H7.2048V16.4114H5.3456V5.49498ZM7.8256 1.64214H9.0672V10.311C9.05537 10.3584 9.05446 10.4078 9.06453 10.4555C9.0746 10.5033 9.09539 10.5481 9.12532 10.5866C9.15524 10.6251 9.19352 10.6562 9.23723 10.6776C9.28095 10.699 9.32895 10.7102 9.3776 10.7102C9.42625 10.7102 9.47425 10.699 9.51797 10.6776C9.56168 10.6562 9.59996 10.6251 9.62988 10.5866C9.65981 10.5481 9.6806 10.5033 9.69067 10.4555C9.70074 10.4078 9.69983 10.3584 9.688 10.311V1.64214H14.6544V12.5585H10.3088C10.2239 12.5585 10.1425 12.5923 10.0825 12.6526C10.0225 12.7128 9.9888 12.7944 9.9888 12.8796V16.4114H7.8256V1.64214ZM10.6192 13.2007H19.6176V16.4114H10.6192V13.2007Z" fill="#757575" stroke="#757575" stroke-width="0.2"/>
<path d="M5.65576 5.81586V12.5583H6.89416V5.81586H5.65576ZM6.58376 12.2372H5.96616V10.6319H6.58376V12.2372ZM6.58376 9.98976H5.96616V8.38441H6.58376V9.98976ZM6.58376 7.74227H5.96616V6.13693H6.58376V7.74227Z" fill="#757575" stroke="#757575" stroke-width="0.2"/>
</svg>
