<svg width="52" height="57" viewBox="0 0 52 57" fill="none" xmlns="http://www.w3.org/2000/svg">
<g clip-path="url(#clip0_219_705)">
<path d="M21.6562 10.8906C21.6562 10.5364 21.3692 10.25 21.0156 10.25H19.0938V7.04688C19.0938 6.69261 18.8068 6.40625 18.4531 6.40625H17.6056L15.2045 0.402953C15.1065 0.159516 14.8714 0 14.6094 0C14.3474 0 14.1123 0.159516 14.0142 0.402953L11.6132 6.40625H10.7656C10.412 6.40625 10.125 6.69261 10.125 7.04688V10.25H8.20312C7.8495 10.25 7.5625 10.5364 7.5625 10.8906V22.4219C7.5625 22.7761 7.8495 23.0625 8.20312 23.0625H8.84375V39.7188H5V41H9.48438H19.7344H20.375V40.3594V39.7188V23.0625H21.0156C21.3692 23.0625 21.6562 22.7761 21.6562 22.4219V10.8906ZM14.6094 2.36519L16.2257 6.40625H12.9931L14.6094 2.36519ZM11.4062 7.6875H12.0469H17.1719H17.8125V10.25H11.4062V7.6875ZM19.0938 39.7188H10.125V23.0625H19.0938V39.7188ZM20.375 21.7812H19.7344H9.48438H8.84375V11.5312H10.7656H18.4531H20.375V21.7812Z" fill="white"/>
<path d="M14.6094 12.1719C12.1366 12.1719 10.125 14.1841 10.125 16.6562C10.125 19.1284 12.1366 21.1406 14.6094 21.1406C17.0822 21.1406 19.0938 19.1284 19.0938 16.6562C19.0938 14.1841 17.0822 12.1719 14.6094 12.1719ZM14.6094 19.8594C12.8432 19.8594 11.4062 18.4225 11.4062 16.6562C11.4062 14.89 12.8432 13.4531 14.6094 13.4531C16.3756 13.4531 17.8125 14.89 17.8125 16.6562C17.8125 18.4225 16.3756 19.8594 14.6094 19.8594Z" fill="white"/>
<path d="M13.9688 16.0156H12.6875V17.2969H14.6094C14.963 17.2969 15.25 17.0105 15.25 16.6562V14.0938H13.9688V16.0156Z" fill="white"/>
<path d="M12.6875 24.3438H11.4062V28.8281H12.6875V24.3438Z" fill="white"/>
<path d="M15.25 24.3438H13.9688V28.8281H15.25V24.3438Z" fill="white"/>
<path d="M17.8125 24.3438H16.5312V28.8281H17.8125V24.3438Z" fill="white"/>
<path d="M12.6875 30.1094H11.4062V35.2344H12.6875V30.1094Z" fill="white"/>
<path d="M15.25 30.1094H13.9688V35.2344H15.25V30.1094Z" fill="white"/>
<path d="M17.8125 30.1094H16.5312V35.2344H17.8125V30.1094Z" fill="white"/>
<path d="M12.6875 36.5156H11.4062V38.4375H12.6875V36.5156Z" fill="white"/>
<path d="M15.25 36.5156H13.9688V38.4375H15.25V36.5156Z" fill="white"/>
<path d="M17.8125 36.5156H16.5312V38.4375H17.8125V36.5156Z" fill="white"/>
<path d="M40.9519 26.8909C41.2677 26.8512 41.5156 26.5923 41.5156 26.2656V23.7031C41.5156 23.3489 41.2286 23.0625 40.875 23.0625H39.513L37.5149 8.24228C37.4726 7.92453 37.201 7.6875 36.8807 7.6875H36.233L35.0844 3.66822C35.0062 3.39275 34.7545 3.20312 34.4688 3.20312V0H33.1875V3.20312C32.9018 3.20312 32.65 3.39275 32.5719 3.66822L31.4232 7.6875H30.7755C30.4552 7.6875 30.1836 7.92453 30.1407 8.24228L28.1432 23.0625H26.7812C26.4276 23.0625 26.1406 23.3489 26.1406 23.7031V26.2656C26.1406 26.5923 26.3885 26.8512 26.7044 26.8909L23.0932 39.7188H21.6562V41H23.5781H27.215H29.3438V39.7188H27.8947C28.2259 36.8404 30.7589 34.5938 33.8281 34.5938C36.8974 34.5938 39.4298 36.8404 39.7616 39.7188H38.3125V41H40.4413H44.0781H46V39.7188H44.5631L40.9519 26.8909ZM39.4099 35.875H40.875L40.1242 36.8763C39.9153 36.522 39.6764 36.1876 39.4099 35.875ZM39.859 34.5938L41.3657 33.087L41.7898 34.5938H39.859ZM27.5321 36.8763L26.7812 35.875H28.2464C27.9799 36.1876 27.7409 36.522 27.5321 36.8763ZM25.8664 34.5938L26.2905 33.087L27.7973 34.5938H25.8664ZM25.4167 36.1915L26.1406 37.1562H25.1451L25.4167 36.1915ZM39.9858 28.1875H27.6704L28.0311 26.9062H39.6258L39.9858 28.1875ZM27.3098 29.4688H40.3471L40.7078 30.75H26.9491L27.3098 29.4688ZM42.2395 36.1915L42.5112 37.1562H41.5156L42.2395 36.1915ZM33.6705 4.48438H33.9851L34.9005 7.6875H32.7551L33.6705 4.48438ZM31.3355 8.96875H31.9062H35.75H36.3208L38.2202 23.0625H36.9672L35.7462 11.4646C35.7122 11.1385 35.4374 10.8906 35.1094 10.8906H32.5469C32.2189 10.8906 31.944 11.1385 31.9095 11.4646L30.6891 23.0625H29.436L31.3355 8.96875ZM35.6789 23.0625H31.9774L33.1241 12.1719H34.5328L35.6789 23.0625ZM27.4219 24.3438H28.7031H31.2656H36.3906H38.9531H40.2344V25.625H40.1107H27.5455H27.4219V24.3438ZM24.4237 39.7188L24.7844 38.4375H26.8498C26.7294 38.8507 26.6454 39.2786 26.6044 39.7188H24.4237ZM29.6352 34.62L27.0465 32.0312H40.6098L38.021 34.62C36.8352 33.8007 35.3906 33.3125 33.8281 33.3125C32.2656 33.3125 30.821 33.8007 29.6352 34.62ZM41.0518 39.7188C41.0108 39.2786 40.9269 38.8507 40.8065 38.4375H42.8718L43.2325 39.7188H41.0518Z" fill="white"/>
<path d="M46 13.4531H42.1562V14.7344H46V13.4531Z" fill="white"/>
<path d="M24.8594 0.640625H23.5781V3.20312H24.8594V0.640625Z" fill="white"/>
<path d="M24.8594 5.76562H23.5781V8.32812H24.8594V5.76562Z" fill="white"/>
<path d="M28.0625 3.84375H25.5V5.125H28.0625V3.84375Z" fill="white"/>
<path d="M22.9375 3.84375H20.375V5.125H22.9375V3.84375Z" fill="white"/>
<path d="M46 8.96875H38.9531V10.25H46V8.96875Z" fill="white"/>
</g>
<path d="M4.13867 54H3.13672V46.3125H0.441406V45.4336H6.82227V46.3125H4.13867V54ZM10.8887 47.4609C11.0176 47.4609 11.1523 47.4688 11.293 47.4844C11.4336 47.4961 11.5586 47.5137 11.668 47.5371L11.5449 48.4395C11.4395 48.4121 11.3223 48.3906 11.1934 48.375C11.0645 48.3594 10.9434 48.3516 10.8301 48.3516C10.5723 48.3516 10.3281 48.4043 10.0977 48.5098C9.87109 48.6113 9.67188 48.7598 9.5 48.9551C9.32812 49.1465 9.19336 49.3789 9.0957 49.6523C8.99805 49.9219 8.94922 50.2227 8.94922 50.5547V54H7.9707V47.5781H8.7793L8.88477 48.7617H8.92578C9.05859 48.5234 9.21875 48.3066 9.40625 48.1113C9.59375 47.9121 9.81055 47.7539 10.0566 47.6367C10.3066 47.5195 10.584 47.4609 10.8887 47.4609ZM15.2832 47.4727C16.0488 47.4727 16.6172 47.6445 16.9883 47.9883C17.3594 48.332 17.5449 48.8809 17.5449 49.6348V54H16.8359L16.6484 53.0508H16.6016C16.4219 53.2852 16.2344 53.4824 16.0391 53.6426C15.8438 53.7988 15.6172 53.918 15.3594 54C15.1055 54.0781 14.793 54.1172 14.4219 54.1172C14.0312 54.1172 13.6836 54.0488 13.3789 53.9121C13.0781 53.7754 12.8398 53.5684 12.6641 53.291C12.4922 53.0137 12.4062 52.6621 12.4062 52.2363C12.4062 51.5957 12.6602 51.1035 13.168 50.7598C13.6758 50.416 14.4492 50.2285 15.4883 50.1973L16.5957 50.1504V49.7578C16.5957 49.2031 16.4766 48.8145 16.2383 48.5918C16 48.3691 15.6641 48.2578 15.2305 48.2578C14.8945 48.2578 14.5742 48.3066 14.2695 48.4043C13.9648 48.502 13.6758 48.6172 13.4023 48.75L13.1035 48.0117C13.3926 47.8633 13.7246 47.7363 14.0996 47.6309C14.4746 47.5254 14.8691 47.4727 15.2832 47.4727ZM16.584 50.8359L15.6055 50.877C14.8047 50.9082 14.2402 51.0391 13.9121 51.2695C13.584 51.5 13.4199 51.8262 13.4199 52.248C13.4199 52.6152 13.5312 52.8867 13.7539 53.0625C13.9766 53.2383 14.2715 53.3262 14.6387 53.3262C15.209 53.3262 15.6758 53.168 16.0391 52.8516C16.4023 52.5352 16.584 52.0605 16.584 51.4277V50.8359ZM20.9609 54L18.5234 47.5781H19.5664L20.9785 51.4629C21.0762 51.7285 21.1758 52.0215 21.2773 52.3418C21.3789 52.6621 21.4492 52.9199 21.4883 53.1152H21.5293C21.5762 52.9199 21.6543 52.6621 21.7637 52.3418C21.873 52.0176 21.9727 51.7246 22.0625 51.4629L23.4746 47.5781H24.5176L22.0742 54H20.9609ZM28.0215 47.4609C28.5684 47.4609 29.0371 47.582 29.4277 47.8242C29.8184 48.0664 30.1172 48.4062 30.3242 48.8438C30.5312 49.2773 30.6348 49.7852 30.6348 50.3672V50.9707H26.1992C26.2109 51.7246 26.3984 52.2988 26.7617 52.6934C27.125 53.0879 27.6367 53.2852 28.2969 53.2852C28.7031 53.2852 29.0625 53.248 29.375 53.1738C29.6875 53.0996 30.0117 52.9902 30.3477 52.8457V53.7012C30.0234 53.8457 29.7012 53.9512 29.3809 54.0176C29.0645 54.084 28.6895 54.1172 28.2559 54.1172C27.6387 54.1172 27.0996 53.9922 26.6387 53.7422C26.1816 53.4883 25.8262 53.1172 25.5723 52.6289C25.3184 52.1406 25.1914 51.543 25.1914 50.8359C25.1914 50.1445 25.3066 49.5469 25.5371 49.043C25.7715 48.5352 26.0996 48.1445 26.5215 47.8711C26.9473 47.5977 27.4473 47.4609 28.0215 47.4609ZM28.0098 48.2578C27.4902 48.2578 27.0762 48.4277 26.7676 48.7676C26.459 49.1074 26.2754 49.582 26.2168 50.1914H29.6152C29.6113 49.8086 29.5508 49.4727 29.4336 49.1836C29.3203 48.8906 29.1465 48.6641 28.9121 48.5039C28.6777 48.3398 28.377 48.2578 28.0098 48.2578ZM33.2656 54H32.2871V44.8828H33.2656V54ZM37.7949 47.4609C38.3418 47.4609 38.8105 47.582 39.2012 47.8242C39.5918 48.0664 39.8906 48.4062 40.0977 48.8438C40.3047 49.2773 40.4082 49.7852 40.4082 50.3672V50.9707H35.9727C35.9844 51.7246 36.1719 52.2988 36.5352 52.6934C36.8984 53.0879 37.4102 53.2852 38.0703 53.2852C38.4766 53.2852 38.8359 53.248 39.1484 53.1738C39.4609 53.0996 39.7852 52.9902 40.1211 52.8457V53.7012C39.7969 53.8457 39.4746 53.9512 39.1543 54.0176C38.8379 54.084 38.4629 54.1172 38.0293 54.1172C37.4121 54.1172 36.873 53.9922 36.4121 53.7422C35.9551 53.4883 35.5996 53.1172 35.3457 52.6289C35.0918 52.1406 34.9648 51.543 34.9648 50.8359C34.9648 50.1445 35.0801 49.5469 35.3105 49.043C35.5449 48.5352 35.873 48.1445 36.2949 47.8711C36.7207 47.5977 37.2207 47.4609 37.7949 47.4609ZM37.7832 48.2578C37.2637 48.2578 36.8496 48.4277 36.541 48.7676C36.2324 49.1074 36.0488 49.582 35.9902 50.1914H39.3887C39.3848 49.8086 39.3242 49.4727 39.207 49.1836C39.0938 48.8906 38.9199 48.6641 38.6855 48.5039C38.4512 48.3398 38.1504 48.2578 37.7832 48.2578ZM44.9785 47.4609C45.1074 47.4609 45.2422 47.4688 45.3828 47.4844C45.5234 47.4961 45.6484 47.5137 45.7578 47.5371L45.6348 48.4395C45.5293 48.4121 45.4121 48.3906 45.2832 48.375C45.1543 48.3594 45.0332 48.3516 44.9199 48.3516C44.6621 48.3516 44.418 48.4043 44.1875 48.5098C43.9609 48.6113 43.7617 48.7598 43.5898 48.9551C43.418 49.1465 43.2832 49.3789 43.1855 49.6523C43.0879 49.9219 43.0391 50.2227 43.0391 50.5547V54H42.0605V47.5781H42.8691L42.9746 48.7617H43.0156C43.1484 48.5234 43.3086 48.3066 43.4961 48.1113C43.6836 47.9121 43.9004 47.7539 44.1465 47.6367C44.3965 47.5195 44.6738 47.4609 44.9785 47.4609ZM51.125 52.2422C51.125 52.6523 51.0215 52.998 50.8145 53.2793C50.6113 53.5566 50.3184 53.7656 49.9355 53.9062C49.5566 54.0469 49.1035 54.1172 48.5762 54.1172C48.127 54.1172 47.7383 54.082 47.4102 54.0117C47.082 53.9414 46.7949 53.8418 46.5488 53.7129V52.8164C46.8105 52.9453 47.123 53.0625 47.4863 53.168C47.8496 53.2734 48.2207 53.3262 48.5996 53.3262C49.1543 53.3262 49.5566 53.2363 49.8066 53.0566C50.0566 52.877 50.1816 52.6328 50.1816 52.3242C50.1816 52.1484 50.1309 51.9941 50.0293 51.8613C49.9316 51.7246 49.7656 51.5938 49.5312 51.4688C49.2969 51.3398 48.9727 51.1992 48.5586 51.0469C48.1484 50.8906 47.793 50.7363 47.4922 50.584C47.1953 50.4277 46.9648 50.2383 46.8008 50.0156C46.6406 49.793 46.5605 49.5039 46.5605 49.1484C46.5605 48.6055 46.7793 48.1895 47.2168 47.9004C47.6582 47.6074 48.2363 47.4609 48.9512 47.4609C49.3379 47.4609 49.6992 47.5 50.0352 47.5781C50.375 47.6523 50.6914 47.7539 50.9844 47.8828L50.6562 48.6621C50.3906 48.5488 50.1074 48.4531 49.8066 48.375C49.5059 48.2969 49.1992 48.2578 48.8867 48.2578C48.4375 48.2578 48.0918 48.332 47.8496 48.4805C47.6113 48.6289 47.4922 48.832 47.4922 49.0898C47.4922 49.2891 47.5469 49.4531 47.6562 49.582C47.7695 49.7109 47.9492 49.832 48.1953 49.9453C48.4414 50.0586 48.7656 50.1914 49.168 50.3438C49.5703 50.4922 49.918 50.6465 50.2109 50.8066C50.5039 50.9629 50.7285 51.1543 50.8848 51.3809C51.0449 51.6035 51.125 51.8906 51.125 52.2422Z" fill="white"/>
<defs>
<clipPath id="clip0_219_705">
<rect width="41" height="41" fill="white" transform="translate(5)"/>
</clipPath>
</defs>
</svg>
