<svg width="13" height="17" viewBox="0 0 13 17" fill="none" xmlns="http://www.w3.org/2000/svg">
<path d="M6.47858 0.0956726C3.03013 0.0956726 0.234497 2.96502 0.234497 6.50547C0.234497 9.36701 4.31547 14.5839 5.87903 16.4774C5.95236 16.5675 6.04407 16.64 6.14766 16.6897C6.25126 16.7394 6.36422 16.7652 6.47858 16.7652C6.59293 16.7652 6.7059 16.7394 6.80949 16.6897C6.91309 16.64 7.00479 16.5675 7.07813 16.4774C8.64168 14.5839 12.7227 9.36788 12.7227 6.50547C12.7227 2.96502 9.92703 0.0956726 6.47858 0.0956726ZM6.47858 8.43024C5.35728 8.43024 4.44908 7.49694 4.44908 6.3466C4.44908 5.19538 5.35813 4.26295 6.47858 4.26295C7.59903 4.26295 8.50807 5.19538 8.50807 6.3466C8.50807 7.49694 7.59903 8.43024 6.47858 8.43024Z" fill="#FF6647"/>
</svg>
