<svg width="20" height="19" viewBox="0 0 20 19" fill="none" xmlns="http://www.w3.org/2000/svg">
<path d="M5.05345 11.6172L3.59729 17.5798C3.53854 17.8188 3.63291 18.0687 3.83477 18.2142C4.03726 18.359 4.30787 18.3731 4.52473 18.2472L10.0006 15.0676L15.474 18.2472C15.5728 18.3046 15.6834 18.3333 15.7934 18.3333C15.924 18.3333 16.054 18.2936 16.164 18.2148C16.3658 18.0693 16.4602 17.8194 16.4015 17.5804L14.9453 11.6178L19.7787 7.61261C19.9719 7.45311 20.0475 7.19522 19.97 6.95994C19.8931 6.72467 19.6781 6.55783 19.4263 6.53767L13.0511 6.02311L10.5743 0.370333C10.4762 0.145444 10.25 0 10 0C9.75002 0 9.52378 0.145444 9.42566 0.370333L6.94707 6.02311L0.573736 6.53706C0.321877 6.55722 0.106891 6.72406 0.0300209 6.95933C-0.0474741 7.19461 0.0281459 7.4525 0.221258 7.612L5.05345 11.6172ZM7.42454 7.2105C7.65515 7.19217 7.85639 7.05039 7.94763 6.842L10 2.1615L12.0499 6.84139C12.1411 7.04978 12.3423 7.19156 12.573 7.20989L17.8189 7.63278L13.8435 10.9273C13.6635 11.0758 13.5848 11.3111 13.6398 11.5353L14.8422 16.4578L10.32 13.8307C10.1237 13.7158 9.87813 13.7158 9.6819 13.8307L5.15719 16.4584L6.35961 11.5353C6.41461 11.3111 6.33586 11.0758 6.15587 10.9273L2.18176 7.63278L7.42454 7.2105Z" fill="#F86549"/>
</svg>
